<svg xmlns="http://www.w3.org/2000/svg" viewBox="0 0 187.09 40.68"><defs><style>.cls-1{fill:#231f20;fill-rule:evenodd;}</style></defs><g id="Livello_2" data-name="Livello 2"><g id="Layer_1" data-name="Layer 1"><path class="cls-1" d="M0,40.13v-3.9H2.17c1.08,0,3.25-.22,3.25-2.82h0V10h0c0-1.41-.11-4.77-2.82-4.77H.11l2.82-5H169.78v5H16.27c-1.41,0-3.26.33-3.26,3.15h0v7.37h0c.33.87,1.63,1.19,2.28,1.19s2.93-.11,2.93-3.68h3.25v12H18.22a3.45,3.45,0,0,0-2.82-3c-1.3-.11-2.39.32-2.39,2.06h0v9.11h0c0,1,1.2,2.82,4,2.82H19v3.9Z"/><path class="cls-1" d="M96.29,10.85c0,.87,1.08,1.74,1.73,2,.76-.54,4.78-2.82,7.92-2.82s4.77,1.63,4.77,4.12h0V26h-7.59V16.81h0c0-1.19-.32-2.06-1.41-2.17s-3.9,2.17-4.66,3.26h0V34.38h0A2.83,2.83,0,0,0,99.87,37h0v3.14H86.63V36.88h0c1.31,0,2.72-.43,2.82-2.39h0V16.16h0a2.71,2.71,0,0,0-2.82-2.06h0V10.85Z"/><path class="cls-1" d="M187.09,10.85H173.85V14.1h0a2.71,2.71,0,0,1,2.82,2.06h0V34.49h0c-.1,2-1.51,2.39-2.82,2.39h0v3.25h13.24V37h0a2.84,2.84,0,0,1-2.82-2.61h0v-18h0c0-1.3,1.41-2.28,2.82-2.28h0V10.85Z"/><path class="cls-1" d="M67,10.85c0,.87,1.09,1.74,1.74,2,.76-.54,4.77-2.82,7.92-2.82s4.77,1.63,4.77,4.12h0V26H73.84V16.81h0c0-1.19-.33-2.06-1.41-2.17s-3.91,2.17-4.67,3.26h0V34.38h0A2.84,2.84,0,0,0,70.58,37h0v3.14H57.35V36.88h0c1.3,0,2.71-.43,2.82-2.39h0V16.16h0a2.71,2.71,0,0,0-2.82-2.06h0V10.85Z"/><path class="cls-1" d="M155,10.85c0,.87,1.09,1.74,1.74,2,.76-.54,4.77-2.82,7.92-2.82s4.77,1.63,4.77,4.12h0V26h-7.59V16.81h0c0-1.19-.33-2.06-1.41-2.17s-3.91,2.17-4.67,3.26h0V34.38h0A2.84,2.84,0,0,0,158.56,37h0v3.14H145.33V36.88h0c1.3,0,2.71-.43,2.82-2.39h0V16.16h0a2.71,2.71,0,0,0-2.82-2.06h0V10.85Z"/><path class="cls-1" d="M51.62,31H44V34h0c0,1.19-.21,3.69-3.79,3.69s-4.67-2.39-4.67-4.12h0V27.34h0A1.3,1.3,0,0,1,36.77,26H51.62V18.12h0c0-3.58-.75-4.67-2.27-6.19S42.51,10,40.13,10c-6.08,0-8,.87-9.76,2.28S28,16.6,28,18.77h0V31h0c0,3.26.65,5.53,2.71,7.59s8.35,2.06,9.66,2.06,5.64.11,8.78-2.16S51.62,31,51.62,31Zm-16-13.45c0-1.73.55-4.33,4.34-4.33S44,16.06,44,17.57h0v3.91h0a1.32,1.32,0,0,1-1.3,1.3H36.88a1.3,1.3,0,0,1-1.31-1.19h0v-4Z"/><path class="cls-1" d="M138.61,34.38V18.12h0c0-2.5-.11-5.1-2.71-7s-6.84-1.73-8.46-1.73-7,0-9.55,2.82a8.42,8.42,0,0,0-2.06,6.62h7.1s.49-3.69,1.47-4.67,3.58-2.06,5.58-.32a3,3,0,0,1,1,2.38h0v4.67h0A1.15,1.15,0,0,1,130,22s-9.87.22-11.61,1.52-3.25,2.17-3.25,6.94,1.19,6.62,2.6,7.59,2.06,2.06,8.46,2.06h15.19V37h0a2.83,2.83,0,0,1-2.82-2.61ZM131,36.23a.87.87,0,0,1-.75.65h-3.75a3.42,3.42,0,0,1-3.41-3.69h0V29h0c0-4.07,4.23-4,5.91-4s2,1.41,2,2.33h0v8.84Z"/><path class="cls-1" d="M180,5.16c3.8,0,6.88-1.16,6.88-2.58S183.77,0,180,0s-6.87,1.15-6.87,2.58,3.08,2.58,6.87,2.58Z"/></g></g></svg>
